<svg width="384" height="384" version="1.1" xmlns="http://www.w3.org/2000/svg" desc="Created with imagetracer.js version 1.2.6" ><path fill="rgb(0,0,0)" stroke="rgb(0,0,0)" stroke-width="1" opacity="0" d="M 0 0 L 384 0 L 384 384 L 0 384 L 0 0 Z M 163 107 Q 160 108 161 112 L 157 113 Q 154 114 155 118 L 149 121 Q 151 126 146 124 L 143 127 L 143 162 L 147 163 L 150 169 L 157 170 L 159 169 Q 163 168 161 172 L 157 173 Q 154 174 155 180 Q 156 182 160 181 L 162 186 Q 161 188 165 187 L 166 191 L 163 191 Q 160 192 161 196 L 157 197 Q 154 198 155 203 Q 149 205 151 199 L 150 197 L 141 196 L 139 193 L 136 190 L 133 190 L 133 181 Q 132 178 129 179 L 127 178 L 127 163 L 126 161 L 121 161 L 121 151 L 117 148 L 115 148 L 115 139 Q 114 136 111 137 Q 108 136 109 133 L 105 130 Q 102 131 103 127 L 102 125 L 73 125 L 71 127 L 71 156 L 75 157 L 76 161 Q 77 164 81 163 Q 84 164 83 168 Q 84 170 88 169 L 89 171 L 89 180 L 93 181 L 95 186 L 100 188 L 101 192 L 105 193 L 106 197 Q 107 200 112 199 L 113 201 L 113 210 L 116 211 L 115 213 L 117 213 Q 118 216 115 215 L 113 219 L 107 223 L 107 234 L 109 235 Q 115 233 113 240 L 115 241 L 125 241 Q 128 240 127 235 L 131 237 L 130 239 L 131 246 L 133 247 L 150 247 Q 152 246 151 243 L 157 240 L 157 229 L 162 229 Q 164 228 163 225 L 169 222 L 169 212 L 172 211 L 173 215 L 173 217 L 173 228 L 175 229 L 179 229 L 179 238 L 175 239 L 172 244 L 167 247 Q 169 253 163 251 L 161 253 L 161 270 L 167 273 L 167 281 L 163 281 L 161 283 L 161 294 L 168 296 L 173 294 L 175 295 Q 179 296 181 294 Q 185 293 187 295 L 216 295 L 217 294 L 222 295 Q 227 297 229 294 Q 234 293 236 295 L 241 294 L 252 295 L 253 294 L 253 283 Q 252 280 249 281 L 247 279 L 249 277 L 264 277 L 265 276 Q 263 270 268 271 L 270 271 Q 272 270 271 266 L 276 265 Q 278 264 277 260 L 282 259 L 283 258 L 283 225 Q 284 222 288 223 L 289 220 Q 290 217 294 217 L 295 216 L 295 207 L 296 206 L 295 203 L 292 202 L 289 199 L 285 196 Q 282 197 283 193 Q 282 190 277 191 Q 274 192 275 196 L 274 197 L 255 197 L 252 191 L 229 191 L 229 181 L 228 179 L 211 179 L 212 175 L 232 175 L 235 174 Q 233 167 240 169 L 242 164 L 246 163 L 248 159 Q 247 156 252 157 L 253 156 L 253 127 L 249 124 L 247 124 L 247 115 L 243 112 Q 240 113 241 109 L 240 107 L 163 107 Z " /><path fill="rgb(0,0,0)" stroke="rgb(0,0,0)" stroke-width="1" opacity="0" d="M 200.5 247 L 203 247.5 L 203 257.5 L 209 260.5 L 210 266.5 L 209 269 L 205 267.5 Q 205.8 263.8 203.5 263 Q 199 263.5 199 262.5 L 199 248.5 L 200.5 247 Z " /><path fill="rgb(36,29,51)" stroke="rgb(36,29,51)" stroke-width="1" opacity="0.9921568627450981" d="M 162 108 L 240 108 L 240 114 L 246 114 L 246 126 L 251.5 126 L 252 126.5 L 252 156 L 246 156 L 246 162 L 240 162 L 240 168 L 234 168 L 234 174 L 210.5 174 L 210 174.5 L 210 180 L 228 180 L 228 191.5 L 228.5 192 L 251.5 192 L 252.5 198 L 276 198 L 276 192 L 282 192 L 282 198 L 288 198 L 288 204 L 294 204 L 294 216 L 288 216 L 288 222 L 282.5 222 L 282 222.5 L 282 258 L 276 258 L 276 264 L 270 264 L 270 270 L 264 270 L 264 276 L 246 276 L 246 282 L 252 282 L 252 294 L 246 294 L 246 282.5 L 245.5 282 L 210 282 L 210 294 L 198 294 L 198 282 L 168 282 L 168 294 L 162 294 L 162 282.5 L 162.5 282 L 168 282 L 168 270 L 162 270 L 162 252 L 168 252 L 168 246 L 174 246 L 174 240 L 180 240 L 180 228 L 174 228 L 174 210 L 168 210 L 168 222 L 162 222 L 162 228 L 156 228 L 156 240 L 150 240 L 150 246 L 132 246 L 132 240 L 150 240 L 150 222 L 162 222 L 162 210 L 168 210 L 168 204 L 174 204 L 174 198 L 180 198 L 180 227.5 L 180.5 228 L 186 228 L 186 222 L 192 222 L 192 216 L 186 216 L 186 210 L 198 210 L 198 222 L 192 222 L 192 228 L 186 228 L 186 240 L 180 240 L 180 246 L 174 246 L 174 258 L 186 258 L 186 252 L 192 252 L 192 246 L 198 246 L 198 240 L 204 240 L 204 210.5 L 204.5 210 L 210 210 L 210 204 L 216 204 L 216 198 L 210 198 L 210 192 L 216 192 L 216 198 L 222 198 L 222 186 L 204 186 L 204 174 L 198 174 L 198 168 L 234 168 L 234 162 L 240 162 L 240 156 L 245.5 156 L 246 155.5 L 246 126 L 240 126 L 240 114.5 L 239.5 114 L 180 114 L 180 120 L 174 120 L 174 114 L 162 114 L 162 120 L 156 120 L 156 126 L 150.5 126 L 150 126.5 L 150 162 L 156 162 L 156 168 L 150 168 L 150 162 L 144.5 162 L 144 161.5 L 144 126 L 150 126 L 150 120 L 156 120 L 156 114 L 162 114 L 162 108 Z M 277 198 L 276 203 Q 277 205 281 204 L 282 202 L 279 203 L 280 201 Q 282 202 281 200 Q 280 197 277 198 Z M 234 204 L 234 210 L 252 210 L 252 204 L 234 204 Z M 275 204 L 272 205 L 271 208 L 273 210 L 276 209 Q 277 205 275 204 Z M 282 205 L 283 210 L 288 210 L 288 208 L 288 205 L 286 206 L 282 205 Z M 222 210 L 222 216 L 234 216 L 234 210 L 222 210 Z M 252 210 L 252 216 L 258 216 L 258 210 L 252 210 Z M 216 216 L 216 246 L 222 246 L 222 252 L 234 252 L 234 246 L 228 246 L 228 240 L 222 240 L 222 217 L 222 216 L 216 216 Z M 276 216 L 276 221 L 280 221 L 280 220 L 280 218 L 280 216 L 276 216 Z M 234 222 L 234 228 L 240 228 L 240 222 L 234 222 Z M 264 222 L 264 246 L 265 246 L 270 246 L 270 223 L 270 222 L 264 222 Z M 228 228 L 228 234 L 234 234 L 234 228 L 228 228 Z M 198 246 L 198 264 L 204 264 L 204 270 L 210 270 L 210 258 L 205 258 L 204 258 L 204 246 L 198 246 Z M 252 246 L 252 252 L 258 252 L 258 257 L 260 257 L 260 258 L 264 258 L 264 246 L 252 246 Z M 234 252 L 234 258 L 252 258 Q 253 258 252 254 L 251 252 L 234 252 Z M 254 258 Q 251 259 252 263 Q 253 265 257 264 Q 259 263 258 260 Q 257 257 254 258 Z " /><path fill="rgb(36,29,51)" stroke="rgb(36,29,51)" stroke-width="1" opacity="0.9921568627450981" d="M 72 126 L 102 126 L 102 132 L 108 132 L 108 138 L 114 138 L 114 149.5 L 114.5 150 L 120 150 L 120 162 L 126 162 L 126 179.5 L 126.5 180 L 132 180 L 132 192 L 138 192 L 138 198 L 150 198 L 150 204 L 156 204 L 156 198 L 162 198 L 162 192 L 168 192 L 168 186 L 162 186 L 162 180 L 156 180 L 156 174 L 162 174 L 162 168 L 168 168 L 168 174 L 162 174 L 162 180 L 191.5 180 L 192 180.5 L 192 186 L 186 186 L 186 192 L 198 192 L 198 204 L 192 204 L 192 198 L 186 198 L 186 192 L 180 192 L 180 186 L 174 186 L 174 192 L 168 192 L 168 198 L 162 198 L 162 204 L 156 204 L 156 216 L 144.5 216 L 144 216.5 L 144 222 L 132 222 L 132 234 L 126 234 L 126 240 L 114 240 L 114 234 L 108 234 L 108 222 L 114 222 L 114 216 L 120 216 L 120 210 L 114 210 L 114 198 L 108 198 L 108 192 L 102 192 L 102 186 L 96 186 L 96 180 L 90 180 L 90 168 L 84 168 L 84 162 L 78 162 L 78 156 L 72 156 L 72 126 Z M 78 132 L 78 156 L 84 156 L 84 162 L 90 162 L 90 168 L 96 168 L 96 180 Q 101 181 103 178 L 103 181 L 102 183 L 103 185 L 106 184 L 106 186 L 108 185 L 108 190 L 109 192 L 114 192 L 114 195 L 118 198 L 119 197 L 120 199 L 120 210 L 125 209 L 126 210 L 126 216 L 138 216 L 138 211 L 139 210 L 150 210 L 150 204 L 139 204 L 138 201 L 138 198 L 132 198 L 132 192 L 126 192 L 126 180 L 123 181 L 120 180 L 120 166 L 119 165 L 120 163 L 119 163 L 114 162 L 114 155 L 113 154 L 114 151 L 112 150 L 109 151 L 108 143 L 106 141 L 108 141 L 108 138 L 103 139 L 104 142 Q 106 143 104 144 L 102 139 Q 103 132 102 132 L 78 132 Z M 115 196 Q 113 199 116 198 L 115 196 Z M 120 216 L 120 228 L 126 228 L 126 216 L 120 216 Z M 114 228 L 114 234 L 120 234 L 120 228 L 114 228 Z " /><path fill="rgb(36,29,51)" stroke="rgb(36,29,51)" stroke-width="1" opacity="0.9921568627450981" d="M 198 126 L 216 126 L 216 132 L 221.5 132 L 222 132.5 L 222 150 L 216 150 L 216 155.5 L 215.5 156 L 198 156 L 198 150 L 192.5 150 L 192 149.5 L 192 132 L 198 132 L 198 126 Z " /><path fill="rgb(36,29,51)" stroke="rgb(36,29,51)" stroke-width="1" opacity="0.9921568627450981" d="M 156 138 L 174 138 L 174 150 L 156 150 L 156 138 Z " /><path fill="rgb(36,29,51)" stroke="rgb(36,29,51)" stroke-width="1" opacity="0.9921568627450981" d="M 174 156 L 180 156 L 180 162 L 174 162 L 174 156 Z " /><path fill="rgb(36,29,51)" stroke="rgb(36,29,51)" stroke-width="1" opacity="0.9921568627450981" d="M 186 156 L 192 156 L 192 162 L 186 162 L 186 156 Z " /><path fill="rgb(36,29,51)" stroke="rgb(36,29,51)" stroke-width="1" opacity="0.9921568627450981" d="M 102 174 L 105 174.5 L 102.5 176 L 102 174 Z " /><path fill="rgb(238,238,225)" stroke="rgb(238,238,225)" stroke-width="1" opacity="0.7098039215686275" d="M 162.5 107 L 239.5 107 L 241 108.5 Q 239.5 112.9 242.5 112 L 247 114.5 L 247 123.5 L 248.5 124 L 253 126.5 L 253 155.5 L 251.5 157 Q 247.1 155.5 248 158.5 L 245.5 163 L 242 164 L 239.5 169 Q 232.8 166.8 235 173.5 L 233 174.5 L 234 168 L 240 168 L 240 163.5 Q 241.4 160.8 246 162 Q 244.8 157.4 247.5 156 Q 252 156.5 252 155.5 L 252 126 Q 247.4 127.3 246 124.5 L 246 114 L 241.5 114 Q 238.8 112.6 240 108 L 162.5 108 Q 161.5 108 162 112.5 Q 160.6 115.3 156 114 Q 157.3 118.6 154.5 120 Q 147.8 117.8 150 124.5 Q 148.6 127.3 144 126 L 144 161.5 Q 144 162.5 148.5 162 Q 150.8 162.8 150 166.5 L 149 166.5 L 146.5 163 L 143 161.5 L 143 126.5 L 145.5 124 Q 150.8 125.8 149 120.5 L 155 118 Q 154 114.2 156.5 113 L 161 112 Q 160 108.2 162.5 107 Z " /><path fill="rgb(238,238,225)" stroke="rgb(238,238,225)" stroke-width="1" opacity="0.7098039215686275" d="M 162 114 L 174 114 L 174 120 L 180 120 L 180 114.5 L 180.5 114 L 222 114 L 222 126 L 227.5 126 L 228 126.5 L 228 162 L 222 162 L 222 167.5 L 221.5 168 L 192 168 L 192 174 L 186 174 L 186 180 L 180 180 L 180 174 L 174 174 L 174 168 L 161.5 168 L 162 169.5 Q 162.8 173.3 160.5 174 L 156 174 L 156 180 Q 160.6 178.8 162 181.5 L 161.5 185 L 159.5 181 Q 155.8 181.8 155 179.5 Q 153.8 174.3 156.5 173 L 161 172 Q 162.7 167.9 158.5 169 L 156.5 170 L 156 167.5 L 156 162 L 150.5 162 L 150 161.5 L 150 126 L 156 126 L 156 120 L 162 120 L 162 114 Z M 198 126 L 198 132 L 192 132 L 192 150 L 193 150 L 198 150 L 198 156 L 216 156 L 216 156 L 216 150 L 222 150 L 222 133 L 222 132 L 216 132 L 216 126 L 198 126 Z M 156 138 L 156 150 L 174 150 L 174 138 L 156 138 Z M 180 150 L 180 156 L 174 156 L 174 162 L 181 161 L 180 163 L 180 168 L 192 168 L 192 150 L 180 150 Z " /><path fill="rgb(238,238,225)" stroke="rgb(238,238,225)" stroke-width="1" opacity="0.7098039215686275" d="M 237.5 114 Q 240.8 112.9 240 115.5 L 238.5 115 L 237.5 114 Z " /><path fill="rgb(238,238,225)" stroke="rgb(238,238,225)" stroke-width="1" opacity="0.7098039215686275" d="M 72.5 125 L 101.5 125 L 103 126.5 Q 101.5 130.9 104.5 130 L 109 132.5 Q 108.3 136.3 110.5 137 Q 114.3 136.3 115 138.5 L 115 147.5 L 116.5 148 L 121 150.5 L 121 161 L 125.5 161 L 127 162.5 L 127 177.5 L 128.5 179 Q 132.3 178.3 133 180.5 L 133 189.5 L 135.5 190 L 139 192.5 L 140.5 196 L 149.5 197 L 151 198.5 Q 149 205.3 155 203 Q 153.8 198.4 156.5 197 L 161 196 Q 160 192.2 162.5 191 L 166 190.5 L 165 187 L 162 186.5 L 168 186 Q 169.3 190.6 166.5 192 Q 159.8 189.8 162 196.5 Q 160.6 199.3 156 198 Q 157.3 202.6 154.5 204 L 150 204 L 150 198 L 138 198 L 138 192 L 132 192 L 132 180 L 126.5 180 L 126 179.5 L 126 162 L 120 162 L 120 150.5 L 119.5 150 L 114 150 L 114 138 L 108 138 L 108 132 L 103.5 132 Q 100.8 130.6 102 126 L 72 126 L 72 156 Q 76.6 154.8 78 157.5 L 78 162 L 84 162 L 84 168 L 88.5 168 L 90 169.5 L 90 180 L 96 180 L 96 186 L 102 186 L 102 192 L 108 192 L 108 198 L 114 198 L 114 210 L 118.5 210 Q 120.8 210.8 120 214.5 Q 118.6 217.3 114 216 Q 115.3 220.6 112.5 222 L 108 222 L 108 234 L 114 234 L 114 240 L 124.5 240 L 124.5 241 L 114.5 241 L 113 239.5 Q 115.3 232.8 108.5 235 L 107 233.5 L 107 222.5 L 113 218.5 L 114.5 215 Q 118.3 216 117 213 L 115 212.5 L 115.5 211 L 113 209.5 L 113 200.5 L 111.5 199 Q 106.8 199.8 106 196.5 L 104.5 193 L 101 191.5 L 100 188 L 95 185.5 L 92.5 181 L 89 179.5 L 89 170.5 L 87.5 169 Q 83.8 169.8 83 167.5 Q 83.5 163.5 80.5 163 Q 76.5 163.5 76 160.5 L 74.5 157 L 71 155.5 L 71 126.5 L 72.5 125 Z " /><path fill="rgb(238,238,225)" stroke="rgb(238,238,225)" stroke-width="1" opacity="0.7098039215686275" d="M 244.5 126 Q 246.8 125.3 246 127.5 L 244.5 126 Z " /><path fill="rgb(238,238,225)" stroke="rgb(238,238,225)" stroke-width="1" opacity="0.7098039215686275" d="M 150.5 168 L 155 168.5 L 150.5 169 L 150.5 168 Z " /><path fill="rgb(238,238,225)" stroke="rgb(238,238,225)" stroke-width="1" opacity="0.7098039215686275" d="M 198 174 L 204 174 L 204 180 L 198 180 L 198 174 Z " /><path fill="rgb(238,238,225)" stroke="rgb(238,238,225)" stroke-width="1" opacity="0.7098039215686275" d="M 210 174 L 232 174.5 L 211 175 L 211.5 179 L 227.5 179 L 229 180.5 L 229 191 L 251.5 191 L 253 192.5 Q 252.3 196.3 254.5 197 L 273.5 197 L 275 195.5 Q 274.3 191.8 276.5 191 Q 281.8 189.8 283 192.5 Q 281.5 196.9 284.5 196 L 289 198.5 L 291.5 202 L 295 203 L 296 205.5 L 295 206.5 L 295 215.5 L 293.5 217 Q 289.5 216.5 289 219.5 L 287.5 223 Q 283.8 222.3 283 224.5 L 283 257.5 L 281.5 259 L 277 260 Q 278 263.8 275.5 265 L 271 266 Q 272 269.8 269.5 271 L 270 269.5 L 270 264 L 276 264 L 276 258 L 282 258 L 282 222.5 L 282.5 222 L 288 222 L 288 216 L 294 216 L 294 204 Q 289.4 205.3 288 202.5 L 288 198 L 282 198 L 282 192 L 276 192 L 276 197.5 L 275.5 198 L 252 198 L 252 192.5 L 251.5 192 L 228 192 L 228 180 L 210 180 L 210 174 Z " /><path fill="rgb(238,238,225)" stroke="rgb(238,238,225)" stroke-width="1" opacity="0.7098039215686275" d="M 209.5 208 L 208.5 210 L 209.5 208 Z " /><path fill="rgb(238,238,225)" stroke="rgb(238,238,225)" stroke-width="1" opacity="0.7098039215686275" d="M 169.5 210 Q 176.3 207.8 174 214.5 L 173 214.5 L 171.5 211 L 169 211.5 L 169 221.5 L 163 224.5 Q 163.8 228.3 161.5 229 L 157 229 L 157 239.5 L 151 242.5 Q 151.8 246.3 149.5 247 L 132.5 247 L 131 245.5 L 131.5 241 L 132 246 L 149.5 246 Q 150.5 246 150 241.5 Q 151.4 238.8 156 240 L 156 228 L 162 228 L 162 223.5 Q 163.4 220.8 168 222 L 168 211.5 L 169.5 210 Z " /><path fill="rgb(238,238,225)" stroke="rgb(238,238,225)" stroke-width="1" opacity="0.7098039215686275" d="M 173.5 216 L 174 228 L 179.5 228 L 180 226.5 L 182 227.5 L 180 228 L 180 238.5 L 178.5 240 Q 171.8 237.8 174 244.5 Q 172.6 247.3 168 246 L 168 252 L 162.5 252 L 162 252.5 L 162 270 L 168 270 L 168 280.5 Q 166.6 283.3 162 282 L 162 294 L 167.5 294 L 169.5 294 L 173.5 293 Q 174.8 295.3 179.5 294 Q 180.8 291.8 185.5 293 L 186.5 294 L 215.5 294 Q 216.8 291.8 221.5 293 Q 222.8 295.3 227.5 294 Q 228.8 291.8 233.5 293 L 233.5 294 L 221.5 295 L 216.5 294 L 215.5 295 L 186.5 295 Q 185.2 292.8 180.5 294 Q 179.2 296.2 174.5 295 L 172.5 294 L 169.5 295 L 168 294.5 L 167.5 296 L 161 293.5 L 161 282.5 L 162.5 281 L 167 281 L 167 272.5 L 161 269.5 L 161 252.5 L 162.5 251 Q 169.3 253.3 167 246.5 L 172 244 L 174.5 239 L 179 238 L 179 229 L 174.5 229 L 173 227.5 L 173.5 216 Z " /><path fill="rgb(238,238,225)" stroke="rgb(238,238,225)" stroke-width="1" opacity="0.7098039215686275" d="M 126 234 L 131 234 L 131 235.5 L 131.5 237 Q 130.4 234.3 127 235 L 126.5 239 L 126 234 Z " /><path fill="rgb(238,238,225)" stroke="rgb(238,238,225)" stroke-width="1" opacity="0.7098039215686275" d="M 149.5 238 L 150 240 L 148 239.5 L 149.5 238 Z " /><path fill="rgb(238,238,225)" stroke="rgb(238,238,225)" stroke-width="1" opacity="0.7098039215686275" d="M 199.5 246 L 204 246 L 204 258 L 210 258 L 210 261.5 L 209 261.5 L 207.5 259 Q 203.8 259.8 203 257.5 L 203 247.5 L 200.5 247 L 199 248.5 L 199 263 Q 203.6 261.8 205 264.5 Q 204.3 268.3 206.5 269 Q 209.8 270.1 209 267.5 L 210 267.5 L 210 270 L 204 270 L 204 264 L 198.5 264 L 198 263.5 L 198 247.5 L 199.5 246 Z " /><path fill="rgb(238,238,225)" stroke="rgb(238,238,225)" stroke-width="1" opacity="0.7098039215686275" d="M 264 270 L 268 270.5 L 265 271 Q 266.3 275.6 263.5 277 L 248.5 277 L 247 278.5 L 248.5 281 Q 252.3 280.3 253 282.5 L 253 293.5 L 251.5 295 L 240.5 294 L 235.5 295 L 235.5 294 L 245.5 293 L 252 294 L 252 282 L 246.5 282 L 245 282.5 L 246 276 L 264 276 L 264 270 Z " /><path fill="rgb(164,167,162)" stroke="rgb(164,167,162)" stroke-width="1" opacity="0.9921568627450981" d="M 222 114 L 236.5 114 L 240 116.5 L 240 126 L 243.5 126 L 246 128.5 L 246 155.5 L 247 156.5 L 245.5 156 Q 237.3 153.3 240 161.5 L 240.5 163 L 234 162 L 234 168 L 222 168 L 222 162 L 227.5 162 L 228 161.5 L 228 126 L 222 126 L 222 114 Z " /><path fill="rgb(164,167,162)" stroke="rgb(164,167,162)" stroke-width="1" opacity="0.9921568627450981" d="M 102.5 131 L 102 132.5 L 102.5 139 L 108 138 L 107 141.5 L 108 142.5 L 108.5 151 L 111.5 150 L 114 150.5 L 113 153.5 L 114 154.5 L 114 162 L 118.5 163 L 120 162.5 L 119 164.5 L 120 165.5 L 120 180 L 122.5 181 L 126 180 L 126 192 L 132 192 L 132 198 L 137.5 198 L 138 200.5 L 138.5 204 L 150 204 L 150 210 L 138.5 210 L 138 210.5 L 138 216 L 126 216 L 126 228 L 120 228 L 120 234 L 114 234 L 114 228 L 120 228 L 120 216.5 L 119.5 215 L 126 216 L 126 209.5 L 124.5 209 L 119.5 211 L 120 209.5 L 120 198.5 L 118.5 197 L 115.5 198 Q 113.3 198.8 114 196.5 L 114 194.5 L 114 192 L 108.5 192 L 108 189.5 L 107.5 185 L 105.5 186 L 102 184.5 L 102 182.5 L 103 180.5 Q 101.8 177.8 100.5 180 L 96 180 L 96 168 L 91.5 168 Q 88.8 166.6 90 162 L 84 162 L 84 156 L 78.5 156 L 77 156.5 L 78 155.5 L 78 132 L 101.5 132 L 102.5 131 Z M 104 139 L 103 144 L 105 143 L 104 139 Z M 102 174 L 103 176 L 105 175 L 102 174 Z " /><path fill="rgb(164,167,162)" stroke="rgb(164,167,162)" stroke-width="1" opacity="0.9921568627450981" d="M 180 150 L 192 150 L 192 156 L 186 156 L 186 162 L 192 162 L 192 168 L 198 168 L 198 180 L 204 180 L 204 186 L 222 186 L 222 198 L 216 198 L 216 204 L 210 204 L 210 207.5 L 209.5 210 L 207.5 210 L 204 210.5 L 204 239.5 L 203.5 240 L 198 240 L 198 245.5 L 198.5 247 L 192 246 L 192 252 L 186 252 L 186 258 L 174 258 L 174 246.5 L 173 245.5 L 174.5 246 Q 182.8 248.8 180 240.5 L 179.5 239 L 186 240 L 186 228.5 L 182.5 228 L 180 225.5 L 180 198 L 174 198 L 174 204 L 168 204 L 168 208.5 Q 166.6 211.3 162 210 L 162 221.5 L 163 222.5 L 161.5 222 L 150 222 L 150 237.5 L 147.5 240 L 133 240 L 132.5 238 L 131.5 241 L 131 237.5 L 131 235.5 Q 133.5 232 132 224.5 L 133 223.5 L 132.5 222 L 144 222 L 144 216 L 149.5 216 L 151.5 216 L 156 216 L 156 205.5 Q 157.4 202.8 162 204 Q 160.8 199.4 163.5 198 Q 170.3 200.3 168 193.5 Q 169.4 190.8 174 192 L 174 186 L 180 186 L 180 192 L 186 192 L 186 186 L 192 186 L 192 180 L 186 180 L 186 174 L 192 174 L 192 168 L 180 168 L 180 162.5 L 180 160.5 L 180 150 Z M 186 192 L 186 198 L 192 198 L 192 204 L 198 204 L 198 192 L 186 192 Z M 210 192 L 210 198 L 216 198 L 216 192 L 210 192 Z M 186 210 L 186 216 L 192 216 L 192 222 L 198 222 L 198 210 L 186 210 Z M 186 222 L 186 228 L 192 228 L 192 222 L 186 222 Z " /><path fill="rgb(164,167,162)" stroke="rgb(164,167,162)" stroke-width="1" opacity="0.9921568627450981" d="M 168 168 L 174 168 L 174 174 L 180 174 L 180 180 L 163.5 180 L 162 178.5 Q 161.3 174.8 163.5 174 L 168 174 L 168 168 Z " /><path fill="rgb(164,167,162)" stroke="rgb(164,167,162)" stroke-width="1" opacity="0.9921568627450981" d="M 276.5 198 L 280.5 199 L 282 198.5 L 281 201 L 279 201.5 L 282 202.5 Q 281.3 204.8 277.5 204 L 276 202.5 L 276.5 198 Z " /><path fill="rgb(164,167,162)" stroke="rgb(164,167,162)" stroke-width="1" opacity="0.9921568627450981" d="M 234 204 L 252 204 L 252 210 L 258 210 L 258 216 L 252 216 L 252 210.5 L 251.5 210 L 234 210 L 234 216 L 222 216 L 222 240 L 228 240 L 228 246 L 234 246 L 234 252 L 250.5 252 Q 253.3 253.4 252 258 L 234 258 L 234 252 L 222 252 L 222 246 L 216 246 L 216 216 L 222 216 L 222 210 L 234 210 L 234 204 Z " /><path fill="rgb(164,167,162)" stroke="rgb(164,167,162)" stroke-width="1" opacity="0.9921568627450981" d="M 274.5 204 Q 277 205.2 276 209 L 272.5 210 L 271 207.5 L 272 205 L 274.5 204 Z " /><path fill="rgb(164,167,162)" stroke="rgb(164,167,162)" stroke-width="1" opacity="0.9921568627450981" d="M 282 205 L 285.5 206 L 287.5 205 L 288 207.5 L 288 210 L 283 210 L 282 205 Z " /><path fill="rgb(164,167,162)" stroke="rgb(164,167,162)" stroke-width="1" opacity="0.9921568627450981" d="M 276 216 L 280 216 L 280 217.5 L 282 217.5 L 280 221 Q 273.6 223.1 276 216 Z " /><path fill="rgb(164,167,162)" stroke="rgb(164,167,162)" stroke-width="1" opacity="0.9921568627450981" d="M 234 222 L 240 222 L 240 228 L 234 228 L 234 234 L 228 234 L 228 228 L 234 228 L 234 222 Z " /><path fill="rgb(164,167,162)" stroke="rgb(164,167,162)" stroke-width="1" opacity="0.9921568627450981" d="M 264 222 L 269.5 222 L 270 222.5 L 270 246 L 264 246 L 264 258 L 260 258 L 259.5 256 L 258 256.5 L 258 252 L 252 252 L 252 246 L 264 246 L 264 222 Z " /><path fill="rgb(164,167,162)" stroke="rgb(164,167,162)" stroke-width="1" opacity="0.9921568627450981" d="M 253.5 258 Q 257.3 257.3 258 259.5 Q 258.8 263.3 256.5 264 Q 252.8 264.8 252 262.5 Q 251.3 258.8 253.5 258 Z " /><path fill="rgb(164,167,162)" stroke="rgb(164,167,162)" stroke-width="1" opacity="0.9921568627450981" d="M 169 282 L 198 282 L 198 294 L 180.5 293 Q 179.2 295.3 174.5 294 L 172.5 293 L 168.5 295 L 168 292.5 Q 167 285 169 282 Z " /><path fill="rgb(164,167,162)" stroke="rgb(164,167,162)" stroke-width="1" opacity="0.9921568627450981" d="M 210 282 L 244.5 282 L 246 283.5 L 246 293 L 240.5 293 Q 239.2 295.3 234.5 294 Q 233.3 291.8 228.5 293 Q 227.3 295.3 222.5 294 Q 221.2 291.8 216.5 293 L 210 294 L 210 282 Z " /></svg>